<?xml version="1.0" encoding="UTF-8"?>
<svg id="Layer_2" data-name="Layer 2" xmlns="http://www.w3.org/2000/svg" viewBox="0 0 303.04 359">
  <defs>
    <style>
      .cls-1 {
        fill: #ff6701;
      }
    </style>
  </defs>
  <g id="circles">
    <path class="cls-1" d="M303.04,356.21L81.66,158.95c42.84-1.15,77.34-36.33,77.34-79.45S123.34,0,79.5,0,0,35.66,0,79.5c0,2.28.12,4.52.31,6.75h-.31v270h22v-34.82c14.05,22.53,39.05,37.57,67.5,37.57,43.84,0,79.5-35.66,79.5-79.5,0-5.38-.54-10.63-1.57-15.71l104.58,92.44,31.03-.03ZM79.5,22c31.76,0,57.5,25.75,57.5,57.5s-25.75,57.5-57.5,57.5-57.5-25.75-57.5-57.5,25.75-57.5,57.5-57.5ZM89.5,337c-31.76,0-57.5-25.75-57.5-57.5s25.75-57.5,57.5-57.5,57.5,25.75,57.5,57.5-25.75,57.5-57.5,57.5ZM89.5,200c-28.45,0-53.45,15.04-67.5,37.57v-102.34l73.56,65.02c-2-.15-4.02-.25-6.06-.25Z"/>
  </g>
</svg>